<mxfile host="app.diagrams.net" modified="2022-11-23T11:39:36.723Z" agent="5.0 (Macintosh; Intel Mac OS X 10_15_7) AppleWebKit/537.36 (KHTML, like Gecko) Chrome/107.0.0.0 Safari/537.36" etag="u_Kd_K5BWxo8IG8En0Qp" version="20.6.0" type="github">
  <diagram name="Page-1" id="e7e014a7-5840-1c2e-5031-d8a46d1fe8dd">
    <mxGraphModel dx="946" dy="646" grid="1" gridSize="10" guides="1" tooltips="1" connect="1" arrows="1" fold="1" page="1" pageScale="1" pageWidth="1169" pageHeight="826" background="none" math="0" shadow="0">
      <root>
        <mxCell id="0" />
        <mxCell id="1" parent="0" />
        <mxCell id="jXAVsXITbFNehqUa9o9y-42" value="Actor" style="shape=umlActor;verticalLabelPosition=bottom;verticalAlign=top;html=1;outlineConnect=0;" vertex="1" parent="1">
          <mxGeometry x="135" y="180" width="30" height="60" as="geometry" />
        </mxCell>
        <mxCell id="jXAVsXITbFNehqUa9o9y-45" value="TNTPSP main page" style="rounded=0;whiteSpace=wrap;html=1;" vertex="1" parent="1">
          <mxGeometry x="200" y="120" width="120" height="60" as="geometry" />
        </mxCell>
        <mxCell id="jXAVsXITbFNehqUa9o9y-48" value="" style="endArrow=classic;html=1;rounded=0;" edge="1" parent="1">
          <mxGeometry relative="1" as="geometry">
            <mxPoint x="150" y="220" as="sourcePoint" />
            <mxPoint x="250" y="220" as="targetPoint" />
          </mxGeometry>
        </mxCell>
        <mxCell id="jXAVsXITbFNehqUa9o9y-49" value="Login" style="edgeLabel;resizable=0;html=1;align=center;verticalAlign=middle;" connectable="0" vertex="1" parent="jXAVsXITbFNehqUa9o9y-48">
          <mxGeometry relative="1" as="geometry" />
        </mxCell>
        <mxCell id="jXAVsXITbFNehqUa9o9y-54" value="" style="html=1;points=[];perimeter=orthogonalPerimeter;" vertex="1" parent="1">
          <mxGeometry x="145" y="268" width="10" height="272" as="geometry" />
        </mxCell>
        <mxCell id="jXAVsXITbFNehqUa9o9y-55" value="" style="html=1;points=[];perimeter=orthogonalPerimeter;" vertex="1" parent="1">
          <mxGeometry x="255" y="240" width="10" height="220" as="geometry" />
        </mxCell>
        <mxCell id="jXAVsXITbFNehqUa9o9y-59" value="" style="endArrow=classic;html=1;rounded=0;" edge="1" parent="1">
          <mxGeometry relative="1" as="geometry">
            <mxPoint x="300" y="230" as="sourcePoint" />
            <mxPoint x="400" y="230" as="targetPoint" />
          </mxGeometry>
        </mxCell>
        <mxCell id="jXAVsXITbFNehqUa9o9y-60" value="session query" style="edgeLabel;resizable=0;html=1;align=center;verticalAlign=middle;" connectable="0" vertex="1" parent="jXAVsXITbFNehqUa9o9y-59">
          <mxGeometry relative="1" as="geometry" />
        </mxCell>
        <mxCell id="jXAVsXITbFNehqUa9o9y-61" value="Session Data&amp;nbsp;" style="rounded=0;whiteSpace=wrap;html=1;" vertex="1" parent="1">
          <mxGeometry x="390" y="140" width="120" height="40" as="geometry" />
        </mxCell>
        <mxCell id="jXAVsXITbFNehqUa9o9y-62" value="" style="html=1;points=[];perimeter=orthogonalPerimeter;" vertex="1" parent="1">
          <mxGeometry x="445" y="268" width="10" height="80" as="geometry" />
        </mxCell>
        <mxCell id="jXAVsXITbFNehqUa9o9y-63" value="" style="endArrow=classic;html=1;rounded=0;" edge="1" parent="1">
          <mxGeometry relative="1" as="geometry">
            <mxPoint x="300" y="390" as="sourcePoint" />
            <mxPoint x="630" y="390" as="targetPoint" />
          </mxGeometry>
        </mxCell>
        <mxCell id="jXAVsXITbFNehqUa9o9y-64" value="Save Cookies" style="edgeLabel;resizable=0;html=1;align=center;verticalAlign=middle;" connectable="0" vertex="1" parent="jXAVsXITbFNehqUa9o9y-63">
          <mxGeometry relative="1" as="geometry" />
        </mxCell>
        <mxCell id="jXAVsXITbFNehqUa9o9y-65" value="Browser Save Cookie" style="rounded=0;whiteSpace=wrap;html=1;" vertex="1" parent="1">
          <mxGeometry x="620" y="130" width="120" height="60" as="geometry" />
        </mxCell>
        <mxCell id="jXAVsXITbFNehqUa9o9y-66" value="" style="html=1;points=[];perimeter=orthogonalPerimeter;" vertex="1" parent="1">
          <mxGeometry x="675" y="250" width="10" height="390" as="geometry" />
        </mxCell>
        <mxCell id="jXAVsXITbFNehqUa9o9y-71" value="&quot;" style="endArrow=classic;html=1;rounded=0;" edge="1" parent="1">
          <mxGeometry relative="1" as="geometry">
            <mxPoint x="645" y="480" as="sourcePoint" />
            <mxPoint x="290" y="480" as="targetPoint" />
          </mxGeometry>
        </mxCell>
        <mxCell id="jXAVsXITbFNehqUa9o9y-72" value="Send Session Data" style="edgeLabel;resizable=0;html=1;align=center;verticalAlign=middle;" connectable="0" vertex="1" parent="jXAVsXITbFNehqUa9o9y-71">
          <mxGeometry relative="1" as="geometry" />
        </mxCell>
      </root>
    </mxGraphModel>
  </diagram>
</mxfile>
